{"title":"Warrior 2011 TS XviD - MiSTERE","uid":6826583,"size":2150479187,"categoryP":"video","categoryS":"movies","magnet":"?xt=urn:btih:356820c7c2b81a309bf48f4f31a37072a8802e25&amp;dn=Warrior+2011+TS+XviD+-+MiSTERE&amp;tr=udp%3A%2F%2Ftracker.openbittorrent.com%3A80&amp;tr=udp%3A%2F%2Fopen.demonii.com%3A1337&amp;tr=udp%3A%2F%2Ftracker.coppersurfer.tk%3A6969&amp;tr=udp%3A%2F%2Fexodus.desync.com%3A6969","seeders":0,"leechers":0,"uploader":"sceneline","files":147,"time":1321589273,"description":"- &lt;a href=&quot;\nhttp://www.Speed.Cd&quot; rel=&quot;nofollow&quot; target=&quot;_NEW&quot;&gt;\nhttp://www.Speed.Cd&lt;/a&gt;      fast  and The Hottest Private Tracker on the net\n\n   signup is open now\n\nPlease Seed back to make the speed Faster!!!\n\n------------------nfo--------------------------\n-Warrior 2011 TS XviD - MiSTERE &lt;a href=&quot;\nhttp://www.imdb.com/title/tt1291584/&quot; rel=&quot;nofollow&quot; target=&quot;_NEW&quot;&gt;\nhttp://www.imdb.com/title/tt1291584/&lt;/a&gt;\n\nVideo\nID                               : 0\nFormat                           : MPEG-4 Visual\nFormat profile                   : Advanced Simple@L5\nFormat settings, BVOP            : 2\nFormat settings, QPel            : No\nFormat settings, GMC             : No warppoints\nFormat settings, Matrix          : Default (H.263)\nMuxing mode                      : Packed bitstream\nCodec ID                         : XVID\nCodec ID/Hint                    : XviD\nDuration                         : 2h 7mn\nBit rate                         : 2 102 Kbps\nWidth                            : 720 pixels\nHeight                           : 288 pixels\nDisplay aspect ratio             : 2.500\nFrame rate                       : 25.000 fps\nColor space                      : YUV\nChroma subsampling               : 4:2:0\nBit depth                        : 8 bits\nScan type                        : Progressive\nCompression mode                 : Lossy\nBits/(Pixel*Frame)               : 0.405\nStream size                      : 1.87 GiB (94%)\nWriting library                  : XviD 64\n\nAudio\nID                               : 1\nFormat                           : MPEG Audio\nFormat version                   : Version 1\nFormat profile                   : Layer 3\nMode                             : Joint stereo\nMode extension                   : MS Stereo\nCodec ID                         : 55\nCodec ID/Hint                    : MP3\nDuration                         : 2h 7mn\nBit rate mode                    : Constant\nBit rate                         : 128 Kbps\nChannel(s)                       : 2 channels\nSampling rate                    : 44.1 KHz\nCompression mode                 : Lossy\nStream size                      : 117 MiB (6%)\nAlignment                        : Split accross interleaves\nInterleave, duration             : 40 ms (1.00 video frame)\n\n\nThanks to TNZ for the 720p \nCropped Resized and Tweaked RGB\n\n\n[img]http://i.imgur.com/2kuDS.png[/img]\n[img]http://i.imgur.com/DMdIs.png[/img]\n[img]http://i.imgur.com/TFo8c.png[/img]\n[img]http://i.imgur.com/OsVqn.png[/img]\n[img]http://i.imgur.com/bV9vY.png[/img]\n[img]http://i.imgur.com/QkWBh.png[/img]\n[img]http://i.imgur.com/0iB7x.png[/img]\n[img]http://i.imgur.com/0iB7x.png[/img]","torrent":{"xt":"urn:btih:356820c7c2b81a309bf48f4f31a37072a8802e25","amp;dn":"Warrior+2011+TS+XviD+-+MiSTERE","amp;tr":["udp%3A%2F%2Ftracker.openbittorrent.com%3A80","udp%3A%2F%2Fopen.demonii.com%3A1337","udp%3A%2F%2Ftracker.coppersurfer.tk%3A6969","udp%3A%2F%2Fexodus.desync.com%3A6969"],"infoHash":"356820c7c2b81a309bf48f4f31a37072a8802e25","infoHashBuffer":{"type":"Buffer","data":[53,104,32,199,194,184,26,48,155,244,143,79,49,163,112,114,168,128,46,37]},"announce":[],"urlList":[]}}